<?xml version="1.0" standalone="no"?>
<!DOCTYPE svg PUBLIC "-//W3C//DTD SVG 1.1//EN"
  "http://www.w3.org/Graphics/SVG/1.1/DTD/svg11.dtd">
<!-- Created with matplotlib (http://matplotlib.sourceforge.net/) -->
<svg width="585pt" height="441pt" viewBox="0 0 585 441"
   xmlns="http://www.w3.org/2000/svg"
   xmlns:xlink="http://www.w3.org/1999/xlink"
   version="1.1"
   id="svg1">
<g id="figure1">
<g id="patch1">
<path style="fill: #ffffff; stroke: #ffffff; stroke-width: 1.000000; stroke-linejoin: round; stroke-linecap: square;  opacity: 1.000000"  d="M0.000000 441.000000L585.000000 441.000000L585.000000 0.000000
L0.000000 0.000000L0.000000 441.000000"/>
</g>
<g id="axes1">
<g id="patch2">
<path style="fill: #ffffff; opacity: 1.000000"  d="M73.125000 396.900000L526.500000 396.900000L526.500000 44.100000
L73.125000 44.100000L73.125000 396.900000"/>
</g>
<g id="line2d1">
<defs>
  <clipPath id="pc3c5e41676658680e7b95047b5791c8e">
<rect x="73.125000" y="44.100000" width="453.375000" height="352.800000"/>
  </clipPath>
</defs><path style="fill: none; stroke: #0000ff; stroke-width: 1.000000; stroke-linejoin: round; stroke-linecap: square;  opacity: 1.000000" clip-path="url(#pc3c5e41676658680e7b95047b5791c8e)" d="M98.896422 173.026907L125.947016 227.775727L178.769032 287.293431
L229.892025 313.502950L372.919219 366.078489L495.701128 382.391723"/>
</g>
<g id="line2d2">
<path style="fill: none; stroke: #008000; stroke-width: 1.000000; stroke-linejoin: round; stroke-linecap: square;  opacity: 1.000000" clip-path="url(#pc3c5e41676658680e7b95047b5791c8e)" d="M98.896422 57.674196L125.947016 150.706208L178.769032 186.239888
L229.892025 194.018668L372.919219 262.881330L495.701128 291.035033"/>
</g>
<g id="line2d3">
<path style="fill: none; stroke: #ff0000; stroke-width: 1.000000; stroke-linejoin: round; stroke-linecap: square;  opacity: 1.000000" clip-path="url(#pc3c5e41676658680e7b95047b5791c8e)" d="M98.896422 91.358598L125.947016 141.150049L178.769032 187.196428
L229.892025 227.443385L372.919219 270.037269L495.701128 279.802123"/>
</g>
<g id="line2d4">
<path style="fill: none; stroke: #00bfbf; stroke-width: 1.000000; stroke-linejoin: round; stroke-linecap: square;  opacity: 1.000000" clip-path="url(#pc3c5e41676658680e7b95047b5791c8e)" d="M98.896422 204.330162L125.947016 257.510293L178.769032 299.248634
L229.892025 327.192541L372.919219 371.568230L495.701128 390.874735"/>
</g>
<g id="line2d5">
<path style="fill: none; stroke: #bf00bf; stroke-width: 1.000000; stroke-linejoin: round; stroke-linecap: square;  opacity: 1.000000" clip-path="url(#pc3c5e41676658680e7b95047b5791c8e)" d="M98.896422 82.532988L125.947016 136.281069L178.769032 179.066435
L229.892025 187.175774L372.919219 261.622874L495.701128 276.192427"/>
</g>
<g id="line2d6">
<path style="fill: none; stroke: #bfbf00; stroke-width: 1.000000; stroke-linejoin: round; stroke-linecap: square;  opacity: 1.000000" clip-path="url(#pc3c5e41676658680e7b95047b5791c8e)" d="M98.896422 80.606006L125.947016 177.542640L178.769032 180.578378
L229.892025 187.655191L372.919219 253.030150L495.701128 278.682880"/>
</g>
<g id="matplotlib.axis1">
<g id="xtick1">
<g id="line2d7">
<defs><path id="m30e32995789d870ad79a2e54c91cf9c6" d="M0.000000 0.000000L0.000000 -4.000000"/></defs>
<g ><use style="fill: none; stroke: #000000; stroke-width: 0.500000; stroke-linejoin: round; stroke-linecap: butt;  opacity: 1.000000" xlink:href="#m30e32995789d870ad79a2e54c91cf9c6" x="73.125000" y="396.900000"/>
</g></g>
<g id="line2d8">
<defs><path id="m9281cae24120827b11d5ea8a7ad3e96b" d="M0.000000 0.000000L0.000000 4.000000"/></defs>
<g ><use style="fill: none; stroke: #000000; stroke-width: 0.500000; stroke-linejoin: round; stroke-linecap: butt;  opacity: 1.000000" xlink:href="#m9281cae24120827b11d5ea8a7ad3e96b" x="73.125000" y="44.100000"/>
</g></g>
<g id="text1">
<defs>
<path id="c_7a2040fe3b94fcd41d0a72c84e93b115" d="M31.781250 -66.406250q-7.609375 0.000000 -11.453125 7.500000q-3.828125 7.484375 -3.828125 22.531250q0.000000 14.984375 3.828125 22.484375q3.843750 7.500000 11.453125 7.500000q7.671875 0.000000 11.500000 -7.500000q3.843750 -7.500000 3.843750 -22.484375q0.000000 -15.046875 -3.843750 -22.531250q-3.828125 -7.500000 -11.500000 -7.500000M31.781250 -74.218750q12.265625 0.000000 18.734375 9.703125q6.468750 9.687500 6.468750 28.140625q0.000000 18.406250 -6.468750 28.109375q-6.468750 9.687500 -18.734375 9.687500q-12.250000 0.000000 -18.718750 -9.687500q-6.468750 -9.703125 -6.468750 -28.109375q0.000000 -18.453125 6.468750 -28.140625q6.468750 -9.703125 18.718750 -9.703125"/>
</defs>
<g style="fill: #000000; opacity: 1.000000" transform="translate(70.101562,409.806250)scale(0.120000)">
<use xlink:href="#c_7a2040fe3b94fcd41d0a72c84e93b115"/>
</g>
</g>
</g>
<g id="xtick2">
<g id="line2d9">
<g ><use style="fill: none; stroke: #000000; stroke-width: 0.500000; stroke-linejoin: round; stroke-linecap: butt;  opacity: 1.000000" xlink:href="#m30e32995789d870ad79a2e54c91cf9c6" x="123.500000" y="396.900000"/>
</g></g>
<g id="line2d10">
<g ><use style="fill: none; stroke: #000000; stroke-width: 0.500000; stroke-linejoin: round; stroke-linecap: butt;  opacity: 1.000000" xlink:href="#m9281cae24120827b11d5ea8a7ad3e96b" x="123.500000" y="44.100000"/>
</g></g>
<g id="text2">
<defs>
<path id="c_ed3f3ed3ebfbd18bcb9c012009a68ad1" d="M19.187500 -8.296875l34.421875 0.000000l0.000000 8.296875l-46.281250 0.000000l0.000000 -8.296875q5.609375 -5.812500 15.296875 -15.593750q9.703125 -9.796875 12.187500 -12.640625q4.734375 -5.312500 6.609375 -9.000000q1.890625 -3.687500 1.890625 -7.250000q0.000000 -5.812500 -4.078125 -9.468750q-4.078125 -3.671875 -10.625000 -3.671875q-4.640625 0.000000 -9.796875 1.609375q-5.140625 1.609375 -11.000000 4.890625l0.000000 -9.968750q5.953125 -2.390625 11.125000 -3.609375q5.187500 -1.218750 9.484375 -1.218750q11.328125 0.000000 18.062500 5.671875q6.734375 5.656250 6.734375 15.125000q0.000000 4.500000 -1.687500 8.531250q-1.671875 4.015625 -6.125000 9.484375q-1.218750 1.421875 -7.765625 8.187500q-6.531250 6.765625 -18.453125 18.921875"/>
</defs>
<g style="fill: #000000; opacity: 1.000000" transform="translate(120.718750,409.806250)scale(0.120000)">
<use xlink:href="#c_ed3f3ed3ebfbd18bcb9c012009a68ad1"/>
</g>
</g>
</g>
<g id="xtick3">
<g id="line2d11">
<g ><use style="fill: none; stroke: #000000; stroke-width: 0.500000; stroke-linejoin: round; stroke-linecap: butt;  opacity: 1.000000" xlink:href="#m30e32995789d870ad79a2e54c91cf9c6" x="173.875000" y="396.900000"/>
</g></g>
<g id="line2d12">
<g ><use style="fill: none; stroke: #000000; stroke-width: 0.500000; stroke-linejoin: round; stroke-linecap: butt;  opacity: 1.000000" xlink:href="#m9281cae24120827b11d5ea8a7ad3e96b" x="173.875000" y="44.100000"/>
</g></g>
<g id="text3">
<defs>
<path id="c_a0416418d96557a09b8c1332d34883ba" d="M37.796875 -64.312500l-24.906250 38.921875l24.906250 0.000000zM35.203125 -72.906250l12.406250 0.000000l0.000000 47.515625l10.406250 0.000000l0.000000 8.203125l-10.406250 0.000000l0.000000 17.187500l-9.812500 0.000000l0.000000 -17.187500l-32.906250 0.000000l0.000000 -9.515625z"/>
</defs>
<g style="fill: #000000; opacity: 1.000000" transform="translate(170.687500,409.650000)scale(0.120000)">
<use xlink:href="#c_a0416418d96557a09b8c1332d34883ba"/>
</g>
</g>
</g>
<g id="xtick4">
<g id="line2d13">
<g ><use style="fill: none; stroke: #000000; stroke-width: 0.500000; stroke-linejoin: round; stroke-linecap: butt;  opacity: 1.000000" xlink:href="#m30e32995789d870ad79a2e54c91cf9c6" x="224.250000" y="396.900000"/>
</g></g>
<g id="line2d14">
<g ><use style="fill: none; stroke: #000000; stroke-width: 0.500000; stroke-linejoin: round; stroke-linecap: butt;  opacity: 1.000000" xlink:href="#m9281cae24120827b11d5ea8a7ad3e96b" x="224.250000" y="44.100000"/>
</g></g>
<g id="text4">
<defs>
<path id="c_cc8d6d580d1b10c8632f7a42cd53db8a" d="M33.015625 -40.375000q-6.640625 0.000000 -10.531250 4.546875q-3.875000 4.531250 -3.875000 12.437500q0.000000 7.859375 3.875000 12.437500q3.890625 4.562500 10.531250 4.562500q6.640625 0.000000 10.515625 -4.562500q3.875000 -4.578125 3.875000 -12.437500q0.000000 -7.906250 -3.875000 -12.437500q-3.875000 -4.546875 -10.515625 -4.546875M52.593750 -71.296875l0.000000 8.984375q-3.718750 -1.750000 -7.500000 -2.671875q-3.781250 -0.937500 -7.500000 -0.937500q-9.765625 0.000000 -14.921875 6.593750q-5.140625 6.593750 -5.875000 19.921875q2.875000 -4.250000 7.218750 -6.515625q4.359375 -2.265625 9.578125 -2.265625q10.984375 0.000000 17.359375 6.671875q6.375000 6.656250 6.375000 18.125000q0.000000 11.234375 -6.640625 18.031250q-6.640625 6.781250 -17.671875 6.781250q-12.656250 0.000000 -19.343750 -9.687500q-6.687500 -9.703125 -6.687500 -28.109375q0.000000 -17.281250 8.203125 -27.562500q8.203125 -10.281250 22.015625 -10.281250q3.718750 0.000000 7.500000 0.734375q3.781250 0.734375 7.890625 2.187500"/>
</defs>
<g style="fill: #000000; opacity: 1.000000" transform="translate(221.234375,409.806250)scale(0.120000)">
<use xlink:href="#c_cc8d6d580d1b10c8632f7a42cd53db8a"/>
</g>
</g>
</g>
<g id="xtick5">
<g id="line2d15">
<g ><use style="fill: none; stroke: #000000; stroke-width: 0.500000; stroke-linejoin: round; stroke-linecap: butt;  opacity: 1.000000" xlink:href="#m30e32995789d870ad79a2e54c91cf9c6" x="274.625000" y="396.900000"/>
</g></g>
<g id="line2d16">
<g ><use style="fill: none; stroke: #000000; stroke-width: 0.500000; stroke-linejoin: round; stroke-linecap: butt;  opacity: 1.000000" xlink:href="#m9281cae24120827b11d5ea8a7ad3e96b" x="274.625000" y="44.100000"/>
</g></g>
<g id="text5">
<defs>
<path id="c_bef35738d52871942e50b9de9b122bab" d="M31.781250 -34.625000q-7.031250 0.000000 -11.062500 3.765625q-4.015625 3.765625 -4.015625 10.343750q0.000000 6.593750 4.015625 10.359375q4.031250 3.765625 11.062500 3.765625q7.031250 0.000000 11.078125 -3.781250q4.062500 -3.796875 4.062500 -10.343750q0.000000 -6.578125 -4.031250 -10.343750q-4.015625 -3.765625 -11.109375 -3.765625M21.921875 -38.812500q-6.343750 -1.562500 -9.890625 -5.906250q-3.531250 -4.359375 -3.531250 -10.609375q0.000000 -8.734375 6.218750 -13.812500q6.234375 -5.078125 17.062500 -5.078125q10.890625 0.000000 17.093750 5.078125q6.203125 5.078125 6.203125 13.812500q0.000000 6.250000 -3.546875 10.609375q-3.531250 4.343750 -9.828125 5.906250q7.125000 1.656250 11.093750 6.500000q3.984375 4.828125 3.984375 11.796875q0.000000 10.609375 -6.468750 16.281250q-6.468750 5.656250 -18.531250 5.656250q-12.046875 0.000000 -18.531250 -5.656250q-6.468750 -5.671875 -6.468750 -16.281250q0.000000 -6.968750 4.000000 -11.796875q4.015625 -4.843750 11.140625 -6.500000M18.312500 -54.390625q0.000000 5.656250 3.531250 8.828125q3.546875 3.171875 9.937500 3.171875q6.359375 0.000000 9.937500 -3.171875q3.593750 -3.171875 3.593750 -8.828125q0.000000 -5.671875 -3.593750 -8.843750q-3.578125 -3.171875 -9.937500 -3.171875q-6.390625 0.000000 -9.937500 3.171875q-3.531250 3.171875 -3.531250 8.843750"/>
</defs>
<g style="fill: #000000; opacity: 1.000000" transform="translate(271.625000,409.806250)scale(0.120000)">
<use xlink:href="#c_bef35738d52871942e50b9de9b122bab"/>
</g>
</g>
</g>
<g id="xtick6">
<g id="line2d17">
<g ><use style="fill: none; stroke: #000000; stroke-width: 0.500000; stroke-linejoin: round; stroke-linecap: butt;  opacity: 1.000000" xlink:href="#m30e32995789d870ad79a2e54c91cf9c6" x="325.000000" y="396.900000"/>
</g></g>
<g id="line2d18">
<g ><use style="fill: none; stroke: #000000; stroke-width: 0.500000; stroke-linejoin: round; stroke-linecap: butt;  opacity: 1.000000" xlink:href="#m9281cae24120827b11d5ea8a7ad3e96b" x="325.000000" y="44.100000"/>
</g></g>
<g id="text6">
<defs>
<path id="c_42baa63129a918535c52adb20d687ea7" d="M12.406250 -8.296875l16.109375 0.000000l0.000000 -55.625000l-17.531250 3.515625l0.000000 -8.984375l17.437500 -3.515625l9.859375 0.000000l0.000000 64.609375l16.109375 0.000000l0.000000 8.296875l-41.984375 0.000000z"/>
</defs>
<g style="fill: #000000; opacity: 1.000000" transform="translate(318.414062,409.806250)scale(0.120000)">
<use xlink:href="#c_42baa63129a918535c52adb20d687ea7"/>
<use xlink:href="#c_7a2040fe3b94fcd41d0a72c84e93b115" x="63.623047"/>
</g>
</g>
</g>
<g id="xtick7">
<g id="line2d19">
<g ><use style="fill: none; stroke: #000000; stroke-width: 0.500000; stroke-linejoin: round; stroke-linecap: butt;  opacity: 1.000000" xlink:href="#m30e32995789d870ad79a2e54c91cf9c6" x="375.375000" y="396.900000"/>
</g></g>
<g id="line2d20">
<g ><use style="fill: none; stroke: #000000; stroke-width: 0.500000; stroke-linejoin: round; stroke-linecap: butt;  opacity: 1.000000" xlink:href="#m9281cae24120827b11d5ea8a7ad3e96b" x="375.375000" y="44.100000"/>
</g></g>
<g id="text7">
<g style="fill: #000000; opacity: 1.000000" transform="translate(368.992188,409.806250)scale(0.120000)">
<use xlink:href="#c_42baa63129a918535c52adb20d687ea7"/>
<use xlink:href="#c_ed3f3ed3ebfbd18bcb9c012009a68ad1" x="63.623047"/>
</g>
</g>
</g>
<g id="xtick8">
<g id="line2d21">
<g ><use style="fill: none; stroke: #000000; stroke-width: 0.500000; stroke-linejoin: round; stroke-linecap: butt;  opacity: 1.000000" xlink:href="#m30e32995789d870ad79a2e54c91cf9c6" x="425.750000" y="396.900000"/>
</g></g>
<g id="line2d22">
<g ><use style="fill: none; stroke: #000000; stroke-width: 0.500000; stroke-linejoin: round; stroke-linecap: butt;  opacity: 1.000000" xlink:href="#m9281cae24120827b11d5ea8a7ad3e96b" x="425.750000" y="44.100000"/>
</g></g>
<g id="text8">
<g style="fill: #000000; opacity: 1.000000" transform="translate(419.101562,409.650000)scale(0.120000)">
<use xlink:href="#c_42baa63129a918535c52adb20d687ea7"/>
<use xlink:href="#c_a0416418d96557a09b8c1332d34883ba" x="63.623047"/>
</g>
</g>
</g>
<g id="xtick9">
<g id="line2d23">
<g ><use style="fill: none; stroke: #000000; stroke-width: 0.500000; stroke-linejoin: round; stroke-linecap: butt;  opacity: 1.000000" xlink:href="#m30e32995789d870ad79a2e54c91cf9c6" x="476.125000" y="396.900000"/>
</g></g>
<g id="line2d24">
<g ><use style="fill: none; stroke: #000000; stroke-width: 0.500000; stroke-linejoin: round; stroke-linecap: butt;  opacity: 1.000000" xlink:href="#m9281cae24120827b11d5ea8a7ad3e96b" x="476.125000" y="44.100000"/>
</g></g>
<g id="text9">
<g style="fill: #000000; opacity: 1.000000" transform="translate(469.523438,409.806250)scale(0.120000)">
<use xlink:href="#c_42baa63129a918535c52adb20d687ea7"/>
<use xlink:href="#c_cc8d6d580d1b10c8632f7a42cd53db8a" x="63.623047"/>
</g>
</g>
</g>
<g id="xtick10">
<g id="line2d25">
<g ><use style="fill: none; stroke: #000000; stroke-width: 0.500000; stroke-linejoin: round; stroke-linecap: butt;  opacity: 1.000000" xlink:href="#m30e32995789d870ad79a2e54c91cf9c6" x="526.500000" y="396.900000"/>
</g></g>
<g id="line2d26">
<g ><use style="fill: none; stroke: #000000; stroke-width: 0.500000; stroke-linejoin: round; stroke-linecap: butt;  opacity: 1.000000" xlink:href="#m9281cae24120827b11d5ea8a7ad3e96b" x="526.500000" y="44.100000"/>
</g></g>
<g id="text10">
<g style="fill: #000000; opacity: 1.000000" transform="translate(519.929688,409.806250)scale(0.120000)">
<use xlink:href="#c_42baa63129a918535c52adb20d687ea7"/>
<use xlink:href="#c_bef35738d52871942e50b9de9b122bab" x="63.623047"/>
</g>
</g>
</g>
<g id="text11">
<defs>
<path id="c_814edda51889e387a3dfbce453bfa1ec" d="M9.812500 -72.906250l9.859375 0.000000l0.000000 72.906250l-9.859375 0.000000z"/>
<path id="c_4653c6dfde66c7610eae0911760d3490" d="M52.000000 -44.187500q3.375000 -6.062500 8.062500 -8.937500q4.687500 -2.875000 11.031250 -2.875000q8.546875 0.000000 13.187500 5.984375q4.640625 5.968750 4.640625 17.000000l0.000000 33.015625l-9.031250 0.000000l0.000000 -32.718750q0.000000 -7.859375 -2.796875 -11.656250q-2.781250 -3.812500 -8.484375 -3.812500q-6.984375 0.000000 -11.046875 4.640625q-4.046875 4.625000 -4.046875 12.640625l0.000000 30.906250l-9.031250 0.000000l0.000000 -32.718750q0.000000 -7.906250 -2.781250 -11.687500q-2.781250 -3.781250 -8.593750 -3.781250q-6.890625 0.000000 -10.953125 4.656250q-4.046875 4.656250 -4.046875 12.625000l0.000000 30.906250l-9.031250 0.000000l0.000000 -54.687500l9.031250 0.000000l0.000000 8.500000q3.078125 -5.031250 7.375000 -7.421875q4.296875 -2.390625 10.203125 -2.390625q5.968750 0.000000 10.140625 3.031250q4.171875 3.015625 6.171875 8.781250"/>
<path id="c_01d93a582460e35a7945ca50d148ffeb" d="M34.281250 -27.484375q-10.890625 0.000000 -15.093750 2.484375q-4.203125 2.484375 -4.203125 8.500000q0.000000 4.781250 3.156250 7.593750q3.156250 2.796875 8.562500 2.796875q7.484375 0.000000 12.000000 -5.296875q4.515625 -5.296875 4.515625 -14.078125l0.000000 -2.000000zM52.203125 -31.203125l0.000000 31.203125l-8.984375 0.000000l0.000000 -8.296875q-3.078125 4.968750 -7.671875 7.343750q-4.593750 2.375000 -11.234375 2.375000q-8.390625 0.000000 -13.359375 -4.718750q-4.953125 -4.718750 -4.953125 -12.625000q0.000000 -9.218750 6.171875 -13.906250q6.187500 -4.687500 18.437500 -4.687500l12.609375 0.000000l0.000000 -0.890625q0.000000 -6.203125 -4.078125 -9.593750q-4.078125 -3.390625 -11.453125 -3.390625q-4.687500 0.000000 -9.140625 1.125000q-4.437500 1.125000 -8.531250 3.375000l0.000000 -8.312500q4.921875 -1.906250 9.562500 -2.843750q4.640625 -0.953125 9.031250 -0.953125q11.875000 0.000000 17.734375 6.156250q5.859375 6.140625 5.859375 18.640625"/>
<path id="c_e3864de5dabf2f8dd9eee74726882ec1" d="M45.406250 -27.984375q0.000000 -9.765625 -4.031250 -15.125000q-4.015625 -5.375000 -11.296875 -5.375000q-7.218750 0.000000 -11.250000 5.375000q-4.031250 5.359375 -4.031250 15.125000q0.000000 9.718750 4.031250 15.093750q4.031250 5.375000 11.250000 5.375000q7.281250 0.000000 11.296875 -5.375000q4.031250 -5.375000 4.031250 -15.093750M54.390625 -6.781250q0.000000 13.953125 -6.203125 20.765625q-6.187500 6.812500 -18.984375 6.812500q-4.734375 0.000000 -8.937500 -0.703125q-4.203125 -0.703125 -8.156250 -2.171875l0.000000 -8.734375q3.953125 2.140625 7.812500 3.156250q3.859375 1.031250 7.859375 1.031250q8.843750 0.000000 13.234375 -4.609375q4.390625 -4.609375 4.390625 -13.937500l0.000000 -4.453125q-2.781250 4.843750 -7.125000 7.234375q-4.343750 2.390625 -10.406250 2.390625q-10.046875 0.000000 -16.203125 -7.656250q-6.156250 -7.671875 -6.156250 -20.328125q0.000000 -12.687500 6.156250 -20.343750q6.156250 -7.671875 16.203125 -7.671875q6.062500 0.000000 10.406250 2.390625q4.343750 2.390625 7.125000 7.218750l0.000000 -8.296875l8.984375 0.000000z"/>
<path id="c_0bce5afba2dc6b9024b26277c38ad8e8" d="M56.203125 -29.593750l0.000000 4.390625l-41.312500 0.000000q0.593750 9.281250 5.593750 14.140625q5.000000 4.859375 13.937500 4.859375q5.171875 0.000000 10.031250 -1.265625q4.859375 -1.265625 9.656250 -3.812500l0.000000 8.500000q-4.843750 2.046875 -9.921875 3.125000q-5.078125 1.078125 -10.296875 1.078125q-13.093750 0.000000 -20.734375 -7.609375q-7.640625 -7.625000 -7.640625 -20.625000q0.000000 -13.421875 7.250000 -21.296875q7.250000 -7.890625 19.562500 -7.890625q11.031250 0.000000 17.453125 7.109375q6.421875 7.093750 6.421875 19.296875M47.218750 -32.234375q-0.093750 -7.359375 -4.125000 -11.750000q-4.031250 -4.406250 -10.671875 -4.406250q-7.515625 0.000000 -12.031250 4.250000q-4.515625 4.250000 -5.203125 11.968750z"/>
<path id="c_d41d8cd98f00b204e9800998ecf8427e" d=""/>
<path id="c_8e0810ad13fe20a2a87a2619799b154d" d="M44.281250 -53.078125l0.000000 8.500000q-3.796875 -1.953125 -7.906250 -2.921875q-4.093750 -0.984375 -8.500000 -0.984375q-6.687500 0.000000 -10.031250 2.046875q-3.343750 2.046875 -3.343750 6.156250q0.000000 3.125000 2.390625 4.906250q2.390625 1.781250 9.625000 3.390625l3.078125 0.687500q9.562500 2.046875 13.593750 5.781250q4.031250 3.734375 4.031250 10.421875q0.000000 7.625000 -6.031250 12.078125q-6.031250 4.437500 -16.578125 4.437500q-4.390625 0.000000 -9.156250 -0.859375q-4.765625 -0.859375 -10.031250 -2.562500l0.000000 -9.281250q4.984375 2.593750 9.812500 3.890625q4.828125 1.281250 9.578125 1.281250q6.343750 0.000000 9.750000 -2.171875q3.421875 -2.171875 3.421875 -6.125000q0.000000 -3.656250 -2.468750 -5.609375q-2.453125 -1.953125 -10.812500 -3.765625l-3.125000 -0.734375q-8.343750 -1.750000 -12.062500 -5.390625q-3.703125 -3.640625 -3.703125 -9.984375q0.000000 -7.718750 5.468750 -11.906250q5.468750 -4.203125 15.531250 -4.203125q4.968750 0.000000 9.359375 0.734375q4.406250 0.718750 8.109375 2.187500"/>
<path id="c_6a63bda47b2f3da1cec6aadd80692cfe" d="M9.421875 -54.687500l8.984375 0.000000l0.000000 54.687500l-8.984375 0.000000zM9.421875 -75.984375l8.984375 0.000000l0.000000 11.390625l-8.984375 0.000000z"/>
<path id="c_9f267d35ece7e6f3f1d851c2e17a8dec" d="M5.515625 -54.687500l42.671875 0.000000l0.000000 8.203125l-33.781250 39.312500l33.781250 0.000000l0.000000 7.171875l-43.890625 0.000000l0.000000 -8.203125l33.796875 -39.312500l-32.578125 0.000000z"/>
<path id="c_fe791a90f5471e2ab20a5ed41a7fa451" d="M54.890625 -33.015625l0.000000 33.015625l-8.984375 0.000000l0.000000 -32.718750q0.000000 -7.765625 -3.031250 -11.609375q-3.031250 -3.859375 -9.078125 -3.859375q-7.281250 0.000000 -11.484375 4.640625q-4.203125 4.625000 -4.203125 12.640625l0.000000 30.906250l-9.031250 0.000000l0.000000 -54.687500l9.031250 0.000000l0.000000 8.500000q3.234375 -4.937500 7.593750 -7.375000q4.375000 -2.437500 10.093750 -2.437500q9.421875 0.000000 14.250000 5.828125q4.843750 5.828125 4.843750 17.156250"/>
<path id="c_72234ddc5dcad8d05c893ef0371171da" d="M9.812500 -72.906250l14.703125 0.000000l18.593750 49.609375l18.703125 -49.609375l14.703125 0.000000l0.000000 72.906250l-9.625000 0.000000l0.000000 -64.015625l-18.796875 50.000000l-9.906250 0.000000l-18.796875 -50.000000l0.000000 64.015625l-9.578125 0.000000z"/>
<path id="c_7b26b13f539f13a4c64eef23b6952d29" d="M4.890625 -31.390625l26.312500 0.000000l0.000000 8.000000l-26.312500 0.000000z"/>
<path id="c_518d586bee075aa0153eaebfcb5ab11f" d="M19.671875 -64.796875l0.000000 27.390625l12.406250 0.000000q6.890625 0.000000 10.640625 -3.562500q3.765625 -3.562500 3.765625 -10.156250q0.000000 -6.546875 -3.765625 -10.109375q-3.750000 -3.562500 -10.640625 -3.562500zM9.812500 -72.906250l22.265625 0.000000q12.265625 0.000000 18.531250 5.546875q6.281250 5.546875 6.281250 16.234375q0.000000 10.796875 -6.281250 16.312500q-6.265625 5.515625 -18.531250 5.515625l-12.406250 0.000000l0.000000 29.296875l-9.859375 0.000000z"/>
<path id="c_801fe2e877fad46da27c898b407b3b54" d="M54.890625 -54.687500l-19.781250 26.609375l20.796875 28.078125l-10.593750 0.000000l-15.921875 -21.484375l-15.906250 21.484375l-10.609375 0.000000l21.250000 -28.609375l-19.437500 -26.078125l10.593750 0.000000l14.500000 19.484375l14.500000 -19.484375z"/>
<path id="c_5099edb83619131346ae654950954dea" d="M9.421875 -75.984375l8.984375 0.000000l0.000000 75.984375l-8.984375 0.000000z"/>
</defs>
<g style="fill: #000000; opacity: 1.000000" transform="translate(222.937500,424.103125)scale(0.120000)">
<use xlink:href="#c_814edda51889e387a3dfbce453bfa1ec"/>
<use xlink:href="#c_4653c6dfde66c7610eae0911760d3490" x="29.492188"/>
<use xlink:href="#c_01d93a582460e35a7945ca50d148ffeb" x="126.904297"/>
<use xlink:href="#c_e3864de5dabf2f8dd9eee74726882ec1" x="188.183594"/>
<use xlink:href="#c_0bce5afba2dc6b9024b26277c38ad8e8" x="251.660156"/>
<use xlink:href="#c_d41d8cd98f00b204e9800998ecf8427e" x="313.183594"/>
<use xlink:href="#c_8e0810ad13fe20a2a87a2619799b154d" x="344.970703"/>
<use xlink:href="#c_6a63bda47b2f3da1cec6aadd80692cfe" x="397.070312"/>
<use xlink:href="#c_9f267d35ece7e6f3f1d851c2e17a8dec" x="424.853516"/>
<use xlink:href="#c_0bce5afba2dc6b9024b26277c38ad8e8" x="477.343750"/>
<use xlink:href="#c_d41d8cd98f00b204e9800998ecf8427e" x="538.867188"/>
<use xlink:href="#c_6a63bda47b2f3da1cec6aadd80692cfe" x="570.654297"/>
<use xlink:href="#c_fe791a90f5471e2ab20a5ed41a7fa451" x="598.437500"/>
<use xlink:href="#c_d41d8cd98f00b204e9800998ecf8427e" x="661.816406"/>
<use xlink:href="#c_72234ddc5dcad8d05c893ef0371171da" x="693.603516"/>
<use xlink:href="#c_0bce5afba2dc6b9024b26277c38ad8e8" x="779.882812"/>
<use xlink:href="#c_e3864de5dabf2f8dd9eee74726882ec1" x="841.406250"/>
<use xlink:href="#c_01d93a582460e35a7945ca50d148ffeb" x="904.882813"/>
<use xlink:href="#c_7b26b13f539f13a4c64eef23b6952d29" x="966.162109"/>
<use xlink:href="#c_518d586bee075aa0153eaebfcb5ab11f" x="1002.246094"/>
<use xlink:href="#c_6a63bda47b2f3da1cec6aadd80692cfe" x="1060.298828"/>
<use xlink:href="#c_801fe2e877fad46da27c898b407b3b54" x="1088.082031"/>
<use xlink:href="#c_0bce5afba2dc6b9024b26277c38ad8e8" x="1144.136719"/>
<use xlink:href="#c_5099edb83619131346ae654950954dea" x="1205.660156"/>
<use xlink:href="#c_8e0810ad13fe20a2a87a2619799b154d" x="1233.443359"/>
</g>
</g>
</g>
<g id="matplotlib.axis2">
<g id="ytick1">
<g id="line2d27">
<defs><path id="m3400efa6b1638b3fea9e19e898273957" d="M0.000000 0.000000L4.000000 0.000000"/></defs>
<g ><use style="fill: none; stroke: #000000; stroke-width: 0.500000; stroke-linejoin: round; stroke-linecap: butt;  opacity: 1.000000" xlink:href="#m3400efa6b1638b3fea9e19e898273957" x="73.125000" y="376.156632"/>
</g></g>
<g id="line2d28">
<defs><path id="m20b58b2501143cb5e0a5e8f1ef6f1643" d="M0.000000 0.000000L-4.000000 0.000000"/></defs>
<g ><use style="fill: none; stroke: #000000; stroke-width: 0.500000; stroke-linejoin: round; stroke-linecap: butt;  opacity: 1.000000" xlink:href="#m20b58b2501143cb5e0a5e8f1ef6f1643" x="526.500000" y="376.156632"/>
</g></g>
<g id="text12">
<g style="fill: #000000; opacity: 1.000000" transform="translate(63.562500,380.609757)scale(0.120000)">
<use xlink:href="#c_ed3f3ed3ebfbd18bcb9c012009a68ad1"/>
</g>
</g>
</g>
<g id="ytick2">
<g id="line2d29">
<g ><use style="fill: none; stroke: #000000; stroke-width: 0.500000; stroke-linejoin: round; stroke-linecap: butt;  opacity: 1.000000" xlink:href="#m3400efa6b1638b3fea9e19e898273957" x="73.125000" y="310.087322"/>
</g></g>
<g id="line2d30">
<g ><use style="fill: none; stroke: #000000; stroke-width: 0.500000; stroke-linejoin: round; stroke-linecap: butt;  opacity: 1.000000" xlink:href="#m20b58b2501143cb5e0a5e8f1ef6f1643" x="526.500000" y="310.087322"/>
</g></g>
<g id="text13">
<defs>
<path id="c_1260a2df50f305f3db244e29828f968e" d="M10.796875 -72.906250l38.718750 0.000000l0.000000 8.312500l-29.687500 0.000000l0.000000 17.859375q2.140625 -0.734375 4.281250 -1.093750q2.156250 -0.359375 4.312500 -0.359375q12.203125 0.000000 19.328125 6.687500q7.140625 6.687500 7.140625 18.109375q0.000000 11.765625 -7.328125 18.296875q-7.328125 6.515625 -20.656250 6.515625q-4.593750 0.000000 -9.359375 -0.781250q-4.750000 -0.781250 -9.828125 -2.343750l0.000000 -9.921875q4.390625 2.390625 9.078125 3.562500q4.687500 1.171875 9.906250 1.171875q8.453125 0.000000 13.375000 -4.437500q4.937500 -4.437500 4.937500 -12.062500q0.000000 -7.609375 -4.937500 -12.046875q-4.921875 -4.453125 -13.375000 -4.453125q-3.953125 0.000000 -7.890625 0.875000q-3.921875 0.875000 -8.015625 2.734375z"/>
</defs>
<g style="fill: #000000; opacity: 1.000000" transform="translate(63.453125,314.376385)scale(0.120000)">
<use xlink:href="#c_1260a2df50f305f3db244e29828f968e"/>
</g>
</g>
</g>
<g id="ytick3">
<g id="line2d31">
<g ><use style="fill: none; stroke: #000000; stroke-width: 0.500000; stroke-linejoin: round; stroke-linecap: butt;  opacity: 1.000000" xlink:href="#m3400efa6b1638b3fea9e19e898273957" x="73.125000" y="260.107819"/>
</g></g>
<g id="line2d32">
<g ><use style="fill: none; stroke: #000000; stroke-width: 0.500000; stroke-linejoin: round; stroke-linecap: butt;  opacity: 1.000000" xlink:href="#m20b58b2501143cb5e0a5e8f1ef6f1643" x="526.500000" y="260.107819"/>
</g></g>
<g id="text14">
<g style="fill: #000000; opacity: 1.000000" transform="translate(55.953125,264.475007)scale(0.120000)">
<use xlink:href="#c_42baa63129a918535c52adb20d687ea7"/>
<use xlink:href="#c_7a2040fe3b94fcd41d0a72c84e93b115" x="63.623047"/>
</g>
</g>
</g>
<g id="ytick4">
<g id="line2d33">
<g ><use style="fill: none; stroke: #000000; stroke-width: 0.500000; stroke-linejoin: round; stroke-linecap: butt;  opacity: 1.000000" xlink:href="#m3400efa6b1638b3fea9e19e898273957" x="73.125000" y="210.128316"/>
</g></g>
<g id="line2d34">
<g ><use style="fill: none; stroke: #000000; stroke-width: 0.500000; stroke-linejoin: round; stroke-linecap: butt;  opacity: 1.000000" xlink:href="#m20b58b2501143cb5e0a5e8f1ef6f1643" x="526.500000" y="210.128316"/>
</g></g>
<g id="text15">
<g style="fill: #000000; opacity: 1.000000" transform="translate(55.515625,214.495503)scale(0.120000)">
<use xlink:href="#c_ed3f3ed3ebfbd18bcb9c012009a68ad1"/>
<use xlink:href="#c_7a2040fe3b94fcd41d0a72c84e93b115" x="63.623047"/>
</g>
</g>
</g>
<g id="ytick5">
<g id="line2d35">
<g ><use style="fill: none; stroke: #000000; stroke-width: 0.500000; stroke-linejoin: round; stroke-linecap: butt;  opacity: 1.000000" xlink:href="#m3400efa6b1638b3fea9e19e898273957" x="73.125000" y="144.059006"/>
</g></g>
<g id="line2d36">
<g ><use style="fill: none; stroke: #000000; stroke-width: 0.500000; stroke-linejoin: round; stroke-linecap: butt;  opacity: 1.000000" xlink:href="#m20b58b2501143cb5e0a5e8f1ef6f1643" x="526.500000" y="144.059006"/>
</g></g>
<g id="text16">
<g style="fill: #000000; opacity: 1.000000" transform="translate(55.562500,148.426194)scale(0.120000)">
<use xlink:href="#c_1260a2df50f305f3db244e29828f968e"/>
<use xlink:href="#c_7a2040fe3b94fcd41d0a72c84e93b115" x="63.623047"/>
</g>
</g>
</g>
<g id="ytick6">
<g id="line2d37">
<g ><use style="fill: none; stroke: #000000; stroke-width: 0.500000; stroke-linejoin: round; stroke-linecap: butt;  opacity: 1.000000" xlink:href="#m3400efa6b1638b3fea9e19e898273957" x="73.125000" y="94.079503"/>
</g></g>
<g id="line2d38">
<g ><use style="fill: none; stroke: #000000; stroke-width: 0.500000; stroke-linejoin: round; stroke-linecap: butt;  opacity: 1.000000" xlink:href="#m20b58b2501143cb5e0a5e8f1ef6f1643" x="526.500000" y="94.079503"/>
</g></g>
<g id="text17">
<g style="fill: #000000; opacity: 1.000000" transform="translate(48.312500,98.446691)scale(0.120000)">
<use xlink:href="#c_42baa63129a918535c52adb20d687ea7"/>
<use xlink:href="#c_7a2040fe3b94fcd41d0a72c84e93b115" x="63.623047"/>
<use xlink:href="#c_7a2040fe3b94fcd41d0a72c84e93b115" x="127.246094"/>
</g>
</g>
</g>
<g id="ytick7">
<g id="line2d39">
<g ><use style="fill: none; stroke: #000000; stroke-width: 0.500000; stroke-linejoin: round; stroke-linecap: butt;  opacity: 1.000000" xlink:href="#m3400efa6b1638b3fea9e19e898273957" x="73.125000" y="44.100000"/>
</g></g>
<g id="line2d40">
<g ><use style="fill: none; stroke: #000000; stroke-width: 0.500000; stroke-linejoin: round; stroke-linecap: butt;  opacity: 1.000000" xlink:href="#m20b58b2501143cb5e0a5e8f1ef6f1643" x="526.500000" y="44.100000"/>
</g></g>
<g id="text18">
<g style="fill: #000000; opacity: 1.000000" transform="translate(47.875000,48.467187)scale(0.120000)">
<use xlink:href="#c_ed3f3ed3ebfbd18bcb9c012009a68ad1"/>
<use xlink:href="#c_7a2040fe3b94fcd41d0a72c84e93b115" x="63.623047"/>
<use xlink:href="#c_7a2040fe3b94fcd41d0a72c84e93b115" x="127.246094"/>
</g>
</g>
</g>
<g id="ytick8">
<g id="line2d41">
<defs><path id="mb39cfcf7402899e54c4d755745537394" d="M0.000000 0.000000L2.000000 0.000000"/></defs>
<g ><use style="fill: none; stroke: #000000; stroke-width: 0.500000; stroke-linejoin: round; stroke-linecap: butt;  opacity: 1.000000" xlink:href="#mb39cfcf7402899e54c4d755745537394" x="73.125000" y="376.156632"/>
</g></g>
<g id="line2d42">
<defs><path id="m6046ccd8b6d57b9fb587e3fdd930e9c5" d="M0.000000 0.000000L-2.000000 0.000000"/></defs>
<g ><use style="fill: none; stroke: #000000; stroke-width: 0.500000; stroke-linejoin: round; stroke-linecap: butt;  opacity: 1.000000" xlink:href="#m6046ccd8b6d57b9fb587e3fdd930e9c5" x="526.500000" y="376.156632"/>
</g></g>
</g>
<g id="ytick9">
<g id="line2d43">
<g ><use style="fill: none; stroke: #000000; stroke-width: 0.500000; stroke-linejoin: round; stroke-linecap: butt;  opacity: 1.000000" xlink:href="#mb39cfcf7402899e54c4d755745537394" x="73.125000" y="326.177129"/>
</g></g>
<g id="line2d44">
<g ><use style="fill: none; stroke: #000000; stroke-width: 0.500000; stroke-linejoin: round; stroke-linecap: butt;  opacity: 1.000000" xlink:href="#m6046ccd8b6d57b9fb587e3fdd930e9c5" x="526.500000" y="326.177129"/>
</g></g>
</g>
<g id="ytick10">
<g id="line2d45">
<g ><use style="fill: none; stroke: #000000; stroke-width: 0.500000; stroke-linejoin: round; stroke-linecap: butt;  opacity: 1.000000" xlink:href="#mb39cfcf7402899e54c4d755745537394" x="73.125000" y="276.197625"/>
</g></g>
<g id="line2d46">
<g ><use style="fill: none; stroke: #000000; stroke-width: 0.500000; stroke-linejoin: round; stroke-linecap: butt;  opacity: 1.000000" xlink:href="#m6046ccd8b6d57b9fb587e3fdd930e9c5" x="526.500000" y="276.197625"/>
</g></g>
</g>
<g id="ytick11">
<g id="line2d47">
<g ><use style="fill: none; stroke: #000000; stroke-width: 0.500000; stroke-linejoin: round; stroke-linecap: butt;  opacity: 1.000000" xlink:href="#mb39cfcf7402899e54c4d755745537394" x="73.125000" y="226.218122"/>
</g></g>
<g id="line2d48">
<g ><use style="fill: none; stroke: #000000; stroke-width: 0.500000; stroke-linejoin: round; stroke-linecap: butt;  opacity: 1.000000" xlink:href="#m6046ccd8b6d57b9fb587e3fdd930e9c5" x="526.500000" y="226.218122"/>
</g></g>
</g>
<g id="ytick12">
<g id="line2d49">
<g ><use style="fill: none; stroke: #000000; stroke-width: 0.500000; stroke-linejoin: round; stroke-linecap: butt;  opacity: 1.000000" xlink:href="#mb39cfcf7402899e54c4d755745537394" x="73.125000" y="176.238619"/>
</g></g>
<g id="line2d50">
<g ><use style="fill: none; stroke: #000000; stroke-width: 0.500000; stroke-linejoin: round; stroke-linecap: butt;  opacity: 1.000000" xlink:href="#m6046ccd8b6d57b9fb587e3fdd930e9c5" x="526.500000" y="176.238619"/>
</g></g>
</g>
<g id="ytick13">
<g id="line2d51">
<g ><use style="fill: none; stroke: #000000; stroke-width: 0.500000; stroke-linejoin: round; stroke-linecap: butt;  opacity: 1.000000" xlink:href="#mb39cfcf7402899e54c4d755745537394" x="73.125000" y="126.259116"/>
</g></g>
<g id="line2d52">
<g ><use style="fill: none; stroke: #000000; stroke-width: 0.500000; stroke-linejoin: round; stroke-linecap: butt;  opacity: 1.000000" xlink:href="#m6046ccd8b6d57b9fb587e3fdd930e9c5" x="526.500000" y="126.259116"/>
</g></g>
</g>
<g id="ytick14">
<g id="line2d53">
<g ><use style="fill: none; stroke: #000000; stroke-width: 0.500000; stroke-linejoin: round; stroke-linecap: butt;  opacity: 1.000000" xlink:href="#mb39cfcf7402899e54c4d755745537394" x="73.125000" y="76.279613"/>
</g></g>
<g id="line2d54">
<g ><use style="fill: none; stroke: #000000; stroke-width: 0.500000; stroke-linejoin: round; stroke-linecap: butt;  opacity: 1.000000" xlink:href="#m6046ccd8b6d57b9fb587e3fdd930e9c5" x="526.500000" y="76.279613"/>
</g></g>
</g>
<g id="text19">
<defs>
<path id="c_5d9b0d099c491f27a9f40b391fa98eef" d="M9.812500 -72.906250l41.890625 0.000000l0.000000 8.312500l-32.031250 0.000000l0.000000 21.484375l28.906250 0.000000l0.000000 8.296875l-28.906250 0.000000l0.000000 34.812500l-9.859375 0.000000z"/>
<path id="c_6ec8d5749226675394676a5d2a3b468b" d="M41.109375 -46.296875q-1.515625 -0.875000 -3.296875 -1.281250q-1.781250 -0.421875 -3.921875 -0.421875q-7.625000 0.000000 -11.703125 4.953125q-4.078125 4.953125 -4.078125 14.234375l0.000000 28.812500l-9.031250 0.000000l0.000000 -54.687500l9.031250 0.000000l0.000000 8.500000q2.843750 -4.984375 7.375000 -7.390625q4.546875 -2.421875 11.046875 -2.421875q0.921875 0.000000 2.046875 0.125000q1.125000 0.109375 2.484375 0.359375z"/>
<path id="c_f15a64fcd463ef4629c48bab42cde24c" d="M18.109375 -8.203125l0.000000 29.000000l-9.031250 0.000000l0.000000 -75.484375l9.031250 0.000000l0.000000 8.296875q2.843750 -4.875000 7.156250 -7.234375q4.328125 -2.375000 10.328125 -2.375000q9.968750 0.000000 16.187500 7.906250q6.234375 7.906250 6.234375 20.796875q0.000000 12.890625 -6.234375 20.812500q-6.218750 7.906250 -16.187500 7.906250q-6.000000 0.000000 -10.328125 -2.375000q-4.312500 -2.375000 -7.156250 -7.250000M48.687500 -27.296875q0.000000 -9.906250 -4.078125 -15.546875q-4.078125 -5.640625 -11.203125 -5.640625q-7.140625 0.000000 -11.218750 5.640625q-4.078125 5.640625 -4.078125 15.546875q0.000000 9.906250 4.078125 15.546875q4.078125 5.640625 11.218750 5.640625q7.125000 0.000000 11.203125 -5.640625q4.078125 -5.640625 4.078125 -15.546875"/>
<path id="c_f05dd90d41f04bb96ef1ca503cc2044b" d="M30.609375 -48.390625q-7.218750 0.000000 -11.421875 5.640625q-4.203125 5.640625 -4.203125 15.453125q0.000000 9.812500 4.171875 15.453125q4.187500 5.640625 11.453125 5.640625q7.187500 0.000000 11.375000 -5.656250q4.203125 -5.671875 4.203125 -15.437500q0.000000 -9.718750 -4.203125 -15.406250q-4.187500 -5.687500 -11.375000 -5.687500M30.609375 -56.000000q11.718750 0.000000 18.406250 7.625000q6.703125 7.609375 6.703125 21.078125q0.000000 13.421875 -6.703125 21.078125q-6.687500 7.640625 -18.406250 7.640625q-11.765625 0.000000 -18.437500 -7.640625q-6.656250 -7.656250 -6.656250 -21.078125q0.000000 -13.468750 6.656250 -21.078125q6.671875 -7.625000 18.437500 -7.625000"/>
<path id="c_d650c37394b681142a10dfc54356d478" d="M48.781250 -52.593750l0.000000 8.406250q-3.812500 -2.109375 -7.640625 -3.156250q-3.828125 -1.046875 -7.734375 -1.046875q-8.750000 0.000000 -13.593750 5.546875q-4.828125 5.531250 -4.828125 15.546875q0.000000 10.015625 4.828125 15.562500q4.843750 5.531250 13.593750 5.531250q3.906250 0.000000 7.734375 -1.046875q3.828125 -1.046875 7.640625 -3.156250l0.000000 8.312500q-3.765625 1.750000 -7.796875 2.625000q-4.015625 0.890625 -8.562500 0.890625q-12.359375 0.000000 -19.640625 -7.765625q-7.265625 -7.765625 -7.265625 -20.953125q0.000000 -13.375000 7.343750 -21.031250q7.359375 -7.671875 20.156250 -7.671875q4.140625 0.000000 8.093750 0.859375q3.953125 0.843750 7.671875 2.546875"/>
<path id="c_d821beae607506e87470f334d9ff47af" d="M45.406250 -46.390625l0.000000 -29.593750l8.984375 0.000000l0.000000 75.984375l-8.984375 0.000000l0.000000 -8.203125q-2.828125 4.875000 -7.156250 7.250000q-4.312500 2.375000 -10.375000 2.375000q-9.906250 0.000000 -16.140625 -7.906250q-6.218750 -7.921875 -6.218750 -20.812500q0.000000 -12.890625 6.218750 -20.796875q6.234375 -7.906250 16.140625 -7.906250q6.062500 0.000000 10.375000 2.375000q4.328125 2.359375 7.156250 7.234375M14.796875 -27.296875q0.000000 9.906250 4.078125 15.546875q4.078125 5.640625 11.203125 5.640625q7.125000 0.000000 11.218750 -5.640625q4.109375 -5.640625 4.109375 -15.546875q0.000000 -9.906250 -4.109375 -15.546875q-4.093750 -5.640625 -11.218750 -5.640625q-7.125000 0.000000 -11.203125 5.640625q-4.078125 5.640625 -4.078125 15.546875"/>
</defs>
<g style="fill: #000000; opacity: 1.000000" transform="translate(42.875000,306.960938)rotate(-90.0)scale(0.120000)">
<use xlink:href="#c_5d9b0d099c491f27a9f40b391fa98eef"/>
<use xlink:href="#c_6ec8d5749226675394676a5d2a3b468b" x="50.269531"/>
<use xlink:href="#c_01d93a582460e35a7945ca50d148ffeb" x="91.382812"/>
<use xlink:href="#c_4653c6dfde66c7610eae0911760d3490" x="152.662109"/>
<use xlink:href="#c_0bce5afba2dc6b9024b26277c38ad8e8" x="250.074219"/>
<use xlink:href="#c_8e0810ad13fe20a2a87a2619799b154d" x="311.597656"/>
<use xlink:href="#c_d41d8cd98f00b204e9800998ecf8427e" x="363.697266"/>
<use xlink:href="#c_f15a64fcd463ef4629c48bab42cde24c" x="395.484375"/>
<use xlink:href="#c_6ec8d5749226675394676a5d2a3b468b" x="458.960938"/>
<use xlink:href="#c_f05dd90d41f04bb96ef1ca503cc2044b" x="497.824219"/>
<use xlink:href="#c_d650c37394b681142a10dfc54356d478" x="559.005859"/>
<use xlink:href="#c_0bce5afba2dc6b9024b26277c38ad8e8" x="613.986328"/>
<use xlink:href="#c_8e0810ad13fe20a2a87a2619799b154d" x="675.509766"/>
<use xlink:href="#c_8e0810ad13fe20a2a87a2619799b154d" x="727.609375"/>
<use xlink:href="#c_0bce5afba2dc6b9024b26277c38ad8e8" x="779.708984"/>
<use xlink:href="#c_d821beae607506e87470f334d9ff47af" x="841.232422"/>
<use xlink:href="#c_d41d8cd98f00b204e9800998ecf8427e" x="904.708984"/>
<use xlink:href="#c_f15a64fcd463ef4629c48bab42cde24c" x="936.496094"/>
<use xlink:href="#c_0bce5afba2dc6b9024b26277c38ad8e8" x="999.972656"/>
<use xlink:href="#c_6ec8d5749226675394676a5d2a3b468b" x="1061.496094"/>
<use xlink:href="#c_d41d8cd98f00b204e9800998ecf8427e" x="1102.609375"/>
<use xlink:href="#c_8e0810ad13fe20a2a87a2619799b154d" x="1134.396484"/>
<use xlink:href="#c_0bce5afba2dc6b9024b26277c38ad8e8" x="1186.496094"/>
<use xlink:href="#c_d650c37394b681142a10dfc54356d478" x="1248.019531"/>
<use xlink:href="#c_f05dd90d41f04bb96ef1ca503cc2044b" x="1303.000000"/>
<use xlink:href="#c_fe791a90f5471e2ab20a5ed41a7fa451" x="1364.181641"/>
<use xlink:href="#c_d821beae607506e87470f334d9ff47af" x="1427.560547"/>
</g>
</g>
</g>
<g id="patch3">
<path style="fill: none; stroke: #000000; stroke-width: 1.000000; stroke-linejoin: round; stroke-linecap: square;  opacity: 1.000000"  d="M73.125000 44.100000L526.500000 44.100000"/>
</g>
<g id="patch4">
<path style="fill: none; stroke: #000000; stroke-width: 1.000000; stroke-linejoin: round; stroke-linecap: square;  opacity: 1.000000"  d="M526.500000 396.900000L526.500000 44.100000"/>
</g>
<g id="patch5">
<path style="fill: none; stroke: #000000; stroke-width: 1.000000; stroke-linejoin: round; stroke-linecap: square;  opacity: 1.000000"  d="M73.125000 396.900000L526.500000 396.900000"/>
</g>
<g id="patch6">
<path style="fill: none; stroke: #000000; stroke-width: 1.000000; stroke-linejoin: round; stroke-linecap: square;  opacity: 1.000000"  d="M73.125000 396.900000L73.125000 44.100000"/>
</g>
<g id="text20">
<defs>
<path id="c_0f8c41144cfbf448378cb6fd1cc8e549" d="M18.312500 -70.218750l0.000000 15.531250l18.500000 0.000000l0.000000 6.984375l-18.500000 0.000000l0.000000 29.687500q0.000000 6.687500 1.828125 8.593750q1.828125 1.906250 7.453125 1.906250l9.218750 0.000000l0.000000 7.515625l-9.218750 0.000000q-10.406250 0.000000 -14.359375 -3.875000q-3.953125 -3.890625 -3.953125 -14.140625l0.000000 -29.687500l-6.593750 0.000000l0.000000 -6.984375l6.593750 0.000000l0.000000 -15.531250z"/>
<path id="c_7efa9804c2b4c09a4b614b91fdebee3d" d="M31.000000 -75.875000q-6.531250 11.218750 -9.718750 22.218750q-3.171875 10.984375 -3.171875 22.265625q0.000000 11.265625 3.203125 22.328125q3.203125 11.062500 9.687500 22.250000l-7.812500 0.000000q-7.312500 -11.484375 -10.953125 -22.562500q-3.640625 -11.078125 -3.640625 -22.015625q0.000000 -10.890625 3.609375 -21.921875q3.625000 -11.046875 10.984375 -22.562500z"/>
<path id="c_4c6532c564269b2c70b230c2e45c01e4" d="M44.390625 -34.187500q3.171875 1.078125 6.171875 4.593750q3.000000 3.515625 6.031250 9.671875l10.015625 19.921875l-10.609375 0.000000l-9.312500 -18.703125q-3.625000 -7.328125 -7.015625 -9.718750q-3.390625 -2.390625 -9.250000 -2.390625l-10.750000 0.000000l0.000000 30.812500l-9.859375 0.000000l0.000000 -72.906250l22.265625 0.000000q12.500000 0.000000 18.656250 5.234375q6.156250 5.218750 6.156250 15.765625q0.000000 6.890625 -3.203125 11.437500q-3.203125 4.531250 -9.296875 6.281250M19.671875 -64.796875l0.000000 25.875000l12.406250 0.000000q7.125000 0.000000 10.765625 -3.296875q3.640625 -3.296875 3.640625 -9.687500q0.000000 -6.390625 -3.640625 -9.640625q-3.640625 -3.250000 -10.765625 -3.250000z"/>
<path id="c_e96974be642f6eac0427d72f9cec6c19" d="M8.015625 -75.875000l7.812500 0.000000q7.312500 11.515625 10.953125 22.562500q3.640625 11.031250 3.640625 21.921875q0.000000 10.937500 -3.640625 22.015625q-3.640625 11.078125 -10.953125 22.562500l-7.812500 0.000000q6.484375 -11.187500 9.687500 -22.250000q3.203125 -11.062500 3.203125 -22.328125q0.000000 -11.281250 -3.203125 -22.265625q-3.203125 -11.000000 -9.687500 -22.218750"/>
<path id="c_1f359503f1521dfa90158578bb4360b9" d="M6.296875 -72.906250l10.593750 0.000000l18.125000 27.109375l18.203125 -27.109375l10.593750 0.000000l-23.437500 35.015625l25.000000 37.890625l-10.593750 0.000000l-20.500000 -31.000000l-20.656250 31.000000l-10.640625 0.000000l26.015625 -38.921875z"/>
<path id="c_a469f8ee191679fe73f3b765bd271597" d="M64.406250 -67.281250l0.000000 10.390625q-4.984375 -4.640625 -10.625000 -6.921875q-5.640625 -2.296875 -11.984375 -2.296875q-12.500000 0.000000 -19.140625 7.640625q-6.640625 7.640625 -6.640625 22.093750q0.000000 14.406250 6.640625 22.046875q6.640625 7.640625 19.140625 7.640625q6.343750 0.000000 11.984375 -2.296875q5.640625 -2.296875 10.625000 -6.937500l0.000000 10.312500q-5.171875 3.515625 -10.968750 5.281250q-5.781250 1.750000 -12.218750 1.750000q-16.562500 0.000000 -26.093750 -10.125000q-9.515625 -10.140625 -9.515625 -27.671875q0.000000 -17.578125 9.515625 -27.703125q9.531250 -10.140625 26.093750 -10.140625q6.531250 0.000000 12.312500 1.734375q5.796875 1.734375 10.875000 5.203125"/>
<path id="c_f0b2f1db24a99c7a6a1fa56820ca5a8a" d="M8.687500 -72.906250l9.921875 0.000000l0.000000 44.296875q0.000000 11.718750 4.234375 16.875000q4.250000 5.140625 13.781250 5.140625q9.468750 0.000000 13.718750 -5.140625q4.250000 -5.156250 4.250000 -16.875000l0.000000 -44.296875l9.906250 0.000000l0.000000 45.515625q0.000000 14.250000 -7.062500 21.531250q-7.046875 7.281250 -20.812500 7.281250q-13.828125 0.000000 -20.890625 -7.281250q-7.046875 -7.281250 -7.046875 -21.531250z"/>
<path id="c_a61a29e824874b7d7ff806198f94f785" d="M3.328125 -72.906250l9.953125 0.000000l15.328125 61.625000l15.281250 -61.625000l11.093750 0.000000l15.328125 61.625000l15.281250 -61.625000l10.015625 0.000000l-18.312500 72.906250l-12.406250 0.000000l-15.375000 -63.281250l-15.531250 63.281250l-12.406250 0.000000z"/>
<path id="c_3dcfa38a02242cb63ec6726c6e70be7a" d="M40.578125 -39.312500q7.078125 1.515625 11.046875 6.312500q3.984375 4.781250 3.984375 11.812500q0.000000 10.781250 -7.421875 16.703125q-7.421875 5.906250 -21.093750 5.906250q-4.578125 0.000000 -9.437500 -0.906250q-4.859375 -0.906250 -10.031250 -2.718750l0.000000 -9.515625q4.093750 2.390625 8.968750 3.609375q4.890625 1.218750 10.218750 1.218750q9.265625 0.000000 14.125000 -3.656250q4.859375 -3.656250 4.859375 -10.640625q0.000000 -6.453125 -4.515625 -10.078125q-4.515625 -3.640625 -12.562500 -3.640625l-8.500000 0.000000l0.000000 -8.109375l8.890625 0.000000q7.265625 0.000000 11.125000 -2.906250q3.859375 -2.906250 3.859375 -8.375000q0.000000 -5.609375 -3.984375 -8.609375q-3.968750 -3.015625 -11.390625 -3.015625q-4.062500 0.000000 -8.703125 0.890625q-4.640625 0.875000 -10.203125 2.718750l0.000000 -8.781250q5.625000 -1.562500 10.531250 -2.343750q4.906250 -0.781250 9.250000 -0.781250q11.234375 0.000000 17.765625 5.109375q6.546875 5.093750 6.546875 13.781250q0.000000 6.062500 -3.468750 10.234375q-3.468750 4.171875 -9.859375 5.781250"/>
<path id="c_cd96f817f3cab988d24a2b49a5577fe6" d="M10.984375 -1.515625l0.000000 -8.984375q3.718750 1.765625 7.515625 2.687500q3.812500 0.921875 7.484375 0.921875q9.765625 0.000000 14.906250 -6.562500q5.156250 -6.562500 5.890625 -19.953125q-2.828125 4.203125 -7.187500 6.453125q-4.343750 2.250000 -9.609375 2.250000q-10.937500 0.000000 -17.312500 -6.609375q-6.375000 -6.625000 -6.375000 -18.109375q0.000000 -11.218750 6.640625 -18.000000q6.640625 -6.796875 17.671875 -6.796875q12.656250 0.000000 19.312500 9.703125q6.671875 9.687500 6.671875 28.140625q0.000000 17.234375 -8.187500 27.515625q-8.171875 10.281250 -21.984375 10.281250q-3.718750 0.000000 -7.531250 -0.734375q-3.796875 -0.734375 -7.906250 -2.203125M30.609375 -32.421875q6.640625 0.000000 10.515625 -4.531250q3.890625 -4.546875 3.890625 -12.468750q0.000000 -7.859375 -3.890625 -12.421875q-3.875000 -4.562500 -10.515625 -4.562500q-6.640625 0.000000 -10.515625 4.562500q-3.875000 4.562500 -3.875000 12.421875q0.000000 7.921875 3.875000 12.468750q3.875000 4.531250 10.515625 4.531250"/>
<path id="c_1e61f2d82efb214551304515847dfb7b" d="M37.203125 -26.218750q0.000000 6.984375 3.468750 10.968750q3.468750 3.968750 9.531250 3.968750q6.000000 0.000000 9.437500 -4.000000q3.453125 -4.000000 3.453125 -10.937500q0.000000 -6.843750 -3.515625 -10.859375q-3.515625 -4.031250 -9.484375 -4.031250q-5.906250 0.000000 -9.406250 4.000000q-3.484375 4.000000 -3.484375 10.890625M63.812500 -11.625000q-2.921875 3.765625 -6.703125 5.546875q-3.781250 1.781250 -8.812500 1.781250q-8.406250 0.000000 -13.656250 -6.078125q-5.250000 -6.078125 -5.250000 -15.843750q0.000000 -9.765625 5.265625 -15.859375q5.281250 -6.109375 13.640625 -6.109375q5.031250 0.000000 8.828125 1.828125q3.812500 1.828125 6.687500 5.531250l0.000000 -6.390625l6.984375 0.000000l0.000000 35.937500q7.140625 -1.078125 11.156250 -6.515625q4.031250 -5.453125 4.031250 -14.093750q0.000000 -5.218750 -1.546875 -9.812500q-1.531250 -4.593750 -4.656250 -8.500000q-5.078125 -6.390625 -12.375000 -9.781250q-7.296875 -3.390625 -15.890625 -3.390625q-6.000000 0.000000 -11.531250 1.593750q-5.515625 1.578125 -10.203125 4.703125q-7.656250 4.984375 -11.984375 13.062500q-4.312500 8.078125 -4.312500 17.500000q0.000000 7.765625 2.796875 14.562500q2.812500 6.781250 8.140625 11.953125q5.125000 5.078125 11.859375 7.734375q6.734375 2.671875 14.406250 2.671875q6.296875 0.000000 12.375000 -2.125000q6.078125 -2.125000 11.156250 -6.078125l4.390625 5.421875q-6.093750 4.734375 -13.296875 7.250000q-7.203125 2.515625 -14.625000 2.515625q-9.031250 0.000000 -17.046875 -3.203125q-8.000000 -3.203125 -14.250000 -9.296875q-6.250000 -6.109375 -9.531250 -14.140625q-3.265625 -8.031250 -3.265625 -17.265625q0.000000 -8.890625 3.312500 -16.937500q3.328125 -8.062500 9.484375 -14.171875q6.296875 -6.187500 14.546875 -9.484375q8.250000 -3.296875 17.484375 -3.296875q10.343750 0.000000 19.203125 4.250000q8.875000 4.234375 14.875000 12.046875q3.656250 4.796875 5.578125 10.406250q1.937500 5.609375 1.937500 11.625000q0.000000 12.843750 -7.765625 20.265625q-7.765625 7.421875 -21.437500 7.703125z"/>
<path id="c_ed3e21196fb739f392806f09ca0594ef" d="M10.687500 -12.406250l10.312500 0.000000l0.000000 12.406250l-10.312500 0.000000z"/>
<path id="c_956f18cfdaf972f35a6c2b4aaac2532b" d="M8.203125 -72.906250l46.875000 0.000000l0.000000 4.203125l-26.468750 68.703125l-10.296875 0.000000l24.906250 -64.593750l-35.015625 0.000000z"/>
<path id="c_3b86f9879deccc43ffac57ae939fe3b7" d="M59.515625 -10.406250l0.000000 -19.578125l-16.109375 0.000000l0.000000 -8.109375l25.875000 0.000000l0.000000 31.312500q-5.703125 4.046875 -12.593750 6.125000q-6.875000 2.078125 -14.687500 2.078125q-17.093750 0.000000 -26.750000 -9.984375q-9.640625 -10.000000 -9.640625 -27.812500q0.000000 -17.875000 9.640625 -27.859375q9.656250 -9.984375 26.750000 -9.984375q7.125000 0.000000 13.546875 1.765625q6.421875 1.750000 11.843750 5.171875l0.000000 10.500000q-5.468750 -4.640625 -11.625000 -6.984375q-6.156250 -2.343750 -12.937500 -2.343750q-13.390625 0.000000 -20.109375 7.468750q-6.703125 7.468750 -6.703125 22.265625q0.000000 14.750000 6.703125 22.218750q6.718750 7.468750 20.109375 7.468750q5.218750 0.000000 9.312500 -0.906250q4.109375 -0.906250 7.375000 -2.812500"/>
<path id="c_5e9f44da4350eed47d2641510279ca20" d="M9.812500 -72.906250l9.859375 0.000000l0.000000 29.890625l35.843750 0.000000l0.000000 -29.890625l9.859375 0.000000l0.000000 72.906250l-9.859375 0.000000l0.000000 -34.718750l-35.843750 0.000000l0.000000 34.718750l-9.859375 0.000000z"/>
<path id="c_9c6d5cbc59c6231647eb409cc6b37bb3" d="M25.390625 -72.906250l8.296875 0.000000l-25.390625 82.187500l-8.296875 0.000000z"/>
<path id="c_46f5d86430594d4affc2299f73adabe3" d="M39.406250 -66.218750q-10.750000 0.000000 -17.078125 8.015625q-6.312500 8.000000 -6.312500 21.828125q0.000000 13.765625 6.312500 21.781250q6.328125 8.000000 17.078125 8.000000q10.734375 0.000000 17.015625 -8.000000q6.281250 -8.015625 6.281250 -21.781250q0.000000 -13.828125 -6.281250 -21.828125q-6.281250 -8.015625 -17.015625 -8.015625M53.218750 -1.312500l13.000000 14.203125l-11.921875 0.000000l-10.796875 -11.671875q-1.609375 0.093750 -2.468750 0.140625q-0.843750 0.062500 -1.625000 0.062500q-15.375000 0.000000 -24.593750 -10.281250q-9.203125 -10.281250 -9.203125 -27.515625q0.000000 -17.281250 9.203125 -27.562500q9.218750 -10.281250 24.593750 -10.281250q15.328125 0.000000 24.500000 10.281250q9.187500 10.281250 9.187500 27.562500q0.000000 12.687500 -5.109375 21.734375q-5.093750 9.031250 -14.765625 13.328125"/>
<path id="c_3b515ad41f960e225ec85275856806ca" d="M8.500000 -21.578125l0.000000 -33.109375l8.984375 0.000000l0.000000 32.765625q0.000000 7.765625 3.015625 11.656250q3.031250 3.875000 9.093750 3.875000q7.265625 0.000000 11.484375 -4.640625q4.234375 -4.640625 4.234375 -12.656250l0.000000 -31.000000l8.984375 0.000000l0.000000 54.687500l-8.984375 0.000000l0.000000 -8.406250q-3.265625 4.984375 -7.593750 7.406250q-4.312500 2.421875 -10.031250 2.421875q-9.421875 0.000000 -14.312500 -5.859375q-4.875000 -5.859375 -4.875000 -17.140625M31.109375 -56.000000z"/>
</defs>
<g style="fill: #000000; opacity: 1.000000" transform="translate(101.890625,36.662500)scale(0.144000)">
<use xlink:href="#c_814edda51889e387a3dfbce453bfa1ec"/>
<use xlink:href="#c_fe791a90f5471e2ab20a5ed41a7fa451" x="29.492188"/>
<use xlink:href="#c_0f8c41144cfbf448378cb6fd1cc8e549" x="92.871094"/>
<use xlink:href="#c_0bce5afba2dc6b9024b26277c38ad8e8" x="132.080078"/>
<use xlink:href="#c_5099edb83619131346ae654950954dea" x="193.603516"/>
<use xlink:href="#c_7efa9804c2b4c09a4b614b91fdebee3d" x="221.386719"/>
<use xlink:href="#c_4c6532c564269b2c70b230c2e45c01e4" x="260.400391"/>
<use xlink:href="#c_e96974be642f6eac0427d72f9cec6c19" x="329.882812"/>
<use xlink:href="#c_d41d8cd98f00b204e9800998ecf8427e" x="368.896484"/>
<use xlink:href="#c_1f359503f1521dfa90158578bb4360b9" x="400.683594"/>
<use xlink:href="#c_0bce5afba2dc6b9024b26277c38ad8e8" x="464.689453"/>
<use xlink:href="#c_f05dd90d41f04bb96ef1ca503cc2044b" x="526.212891"/>
<use xlink:href="#c_fe791a90f5471e2ab20a5ed41a7fa451" x="587.394531"/>
<use xlink:href="#c_7efa9804c2b4c09a4b614b91fdebee3d" x="650.773438"/>
<use xlink:href="#c_4c6532c564269b2c70b230c2e45c01e4" x="689.787109"/>
<use xlink:href="#c_e96974be642f6eac0427d72f9cec6c19" x="759.269531"/>
<use xlink:href="#c_d41d8cd98f00b204e9800998ecf8427e" x="798.283203"/>
<use xlink:href="#c_a469f8ee191679fe73f3b765bd271597" x="830.070313"/>
<use xlink:href="#c_518d586bee075aa0153eaebfcb5ab11f" x="899.894531"/>
<use xlink:href="#c_f0b2f1db24a99c7a6a1fa56820ca5a8a" x="960.197266"/>
<use xlink:href="#c_d41d8cd98f00b204e9800998ecf8427e" x="1033.390625"/>
<use xlink:href="#c_a61a29e824874b7d7ff806198f94f785" x="1065.177734"/>
<use xlink:href="#c_3dcfa38a02242cb63ec6726c6e70be7a" x="1164.054688"/>
<use xlink:href="#c_cc8d6d580d1b10c8632f7a42cd53db8a" x="1227.677734"/>
<use xlink:href="#c_cd96f817f3cab988d24a2b49a5577fe6" x="1291.300781"/>
<use xlink:href="#c_7a2040fe3b94fcd41d0a72c84e93b115" x="1354.923828"/>
<use xlink:href="#c_d41d8cd98f00b204e9800998ecf8427e" x="1418.546875"/>
<use xlink:href="#c_1e61f2d82efb214551304515847dfb7b" x="1450.333984"/>
<use xlink:href="#c_d41d8cd98f00b204e9800998ecf8427e" x="1550.333984"/>
<use xlink:href="#c_3dcfa38a02242cb63ec6726c6e70be7a" x="1582.121094"/>
<use xlink:href="#c_ed3e21196fb739f392806f09ca0594ef" x="1645.744141"/>
<use xlink:href="#c_a0416418d96557a09b8c1332d34883ba" x="1677.531250"/>
<use xlink:href="#c_956f18cfdaf972f35a6c2b4aaac2532b" x="1741.154297"/>
<use xlink:href="#c_3b86f9879deccc43ffac57ae939fe3b7" x="1804.777344"/>
<use xlink:href="#c_5e9f44da4350eed47d2641510279ca20" x="1882.267578"/>
<use xlink:href="#c_9f267d35ece7e6f3f1d851c2e17a8dec" x="1957.462891"/>
<use xlink:href="#c_d41d8cd98f00b204e9800998ecf8427e" x="2009.953125"/>
<use xlink:href="#c_9c6d5cbc59c6231647eb409cc6b37bb3" x="2041.740234"/>
<use xlink:href="#c_d41d8cd98f00b204e9800998ecf8427e" x="2075.431641"/>
<use xlink:href="#c_46f5d86430594d4affc2299f73adabe3" x="2107.218750"/>
<use xlink:href="#c_3b515ad41f960e225ec85275856806ca" x="2185.929688"/>
<use xlink:href="#c_01d93a582460e35a7945ca50d148ffeb" x="2249.308594"/>
<use xlink:href="#c_d821beae607506e87470f334d9ff47af" x="2310.587891"/>
<use xlink:href="#c_6ec8d5749226675394676a5d2a3b468b" x="2374.064453"/>
<use xlink:href="#c_f05dd90d41f04bb96ef1ca503cc2044b" x="2412.927734"/>
<use xlink:href="#c_d41d8cd98f00b204e9800998ecf8427e" x="2474.109375"/>
<use xlink:href="#c_a0416418d96557a09b8c1332d34883ba" x="2505.896484"/>
<use xlink:href="#c_7a2040fe3b94fcd41d0a72c84e93b115" x="2569.519531"/>
<use xlink:href="#c_7a2040fe3b94fcd41d0a72c84e93b115" x="2633.142578"/>
<use xlink:href="#c_7a2040fe3b94fcd41d0a72c84e93b115" x="2696.765625"/>
</g>
</g>
<g id="legend1">
<g id="patch7">
<path style="fill: #ffffff; stroke: #000000; stroke-width: 1.000000; stroke-linejoin: round; stroke-linecap: square;  opacity: 1.000000"  d="M285.053750 182.445000L519.300000 182.445000L519.300000 51.300000
L285.053750 51.300000L285.053750 182.445000z"/>
</g>
<g id="line2d55">
<path style="fill: none; stroke: #0000ff; stroke-width: 1.000000; stroke-linejoin: round; stroke-linecap: square;  opacity: 1.000000"  d="M295.133750 62.660625L315.293750 62.660625"/>
</g>
<g id="line2d56">
</g>
<g id="text21">
<defs>
<path id="c_ff9441f72805bc441fcb0bfe0d774f13" d="M19.671875 -64.796875l0.000000 56.687500l11.921875 0.000000q15.093750 0.000000 22.093750 -6.828125q7.000000 -6.843750 7.000000 -21.593750q0.000000 -14.640625 -7.000000 -21.453125q-7.000000 -6.812500 -22.093750 -6.812500zM9.812500 -72.906250l20.265625 0.000000q21.187500 0.000000 31.093750 8.812500q9.921875 8.812500 9.921875 27.562500q0.000000 18.859375 -9.968750 27.703125q-9.953125 8.828125 -31.046875 8.828125l-20.265625 0.000000z"/>
<path id="c_53989f37671240acb447bc6046631699" d="M50.984375 16.609375l0.000000 6.968750l-51.968750 0.000000l0.000000 -6.968750z"/>
</defs>
<g style="fill: #000000; opacity: 1.000000" transform="translate(331.133750,67.700625)scale(0.144000)">
<use xlink:href="#c_42baa63129a918535c52adb20d687ea7"/>
<use xlink:href="#c_ff9441f72805bc441fcb0bfe0d774f13" x="63.623047"/>
<use xlink:href="#c_53989f37671240acb447bc6046631699" x="140.625000"/>
<use xlink:href="#c_a469f8ee191679fe73f3b765bd271597" x="190.625000"/>
<use xlink:href="#c_518d586bee075aa0153eaebfcb5ab11f" x="260.449219"/>
<use xlink:href="#c_f0b2f1db24a99c7a6a1fa56820ca5a8a" x="320.751953"/>
<use xlink:href="#c_53989f37671240acb447bc6046631699" x="393.945312"/>
<use xlink:href="#c_8e0810ad13fe20a2a87a2619799b154d" x="443.945313"/>
<use xlink:href="#c_0bce5afba2dc6b9024b26277c38ad8e8" x="496.044922"/>
<use xlink:href="#c_6ec8d5749226675394676a5d2a3b468b" x="557.568359"/>
<use xlink:href="#c_6a63bda47b2f3da1cec6aadd80692cfe" x="598.681641"/>
<use xlink:href="#c_01d93a582460e35a7945ca50d148ffeb" x="626.464844"/>
<use xlink:href="#c_5099edb83619131346ae654950954dea" x="687.744141"/>
</g>
</g>
<g id="line2d57">
<path style="fill: none; stroke: #008000; stroke-width: 1.000000; stroke-linejoin: round; stroke-linecap: square;  opacity: 1.000000"  d="M295.133750 83.798125L315.293750 83.798125"/>
</g>
<g id="line2d58">
</g>
<g id="text22">
<defs>
<path id="c_680e57528fc97ec49605e10827a40086" d="M39.406250 -66.218750q-10.750000 0.000000 -17.078125 8.015625q-6.312500 8.000000 -6.312500 21.828125q0.000000 13.765625 6.312500 21.781250q6.328125 8.000000 17.078125 8.000000q10.734375 0.000000 17.015625 -8.000000q6.281250 -8.015625 6.281250 -21.781250q0.000000 -13.828125 -6.281250 -21.828125q-6.281250 -8.015625 -17.015625 -8.015625M39.406250 -74.218750q15.328125 0.000000 24.500000 10.281250q9.187500 10.281250 9.187500 27.562500q0.000000 17.234375 -9.187500 27.515625q-9.171875 10.281250 -24.500000 10.281250q-15.375000 0.000000 -24.593750 -10.250000q-9.203125 -10.265625 -9.203125 -27.546875q0.000000 -17.281250 9.203125 -27.562500q9.218750 -10.281250 24.593750 -10.281250"/>
</defs>
<g style="fill: #000000; opacity: 1.000000" transform="translate(331.133750,88.838125)scale(0.144000)">
<use xlink:href="#c_42baa63129a918535c52adb20d687ea7"/>
<use xlink:href="#c_ff9441f72805bc441fcb0bfe0d774f13" x="63.623047"/>
<use xlink:href="#c_53989f37671240acb447bc6046631699" x="140.625000"/>
<use xlink:href="#c_a469f8ee191679fe73f3b765bd271597" x="190.625000"/>
<use xlink:href="#c_518d586bee075aa0153eaebfcb5ab11f" x="260.449219"/>
<use xlink:href="#c_f0b2f1db24a99c7a6a1fa56820ca5a8a" x="320.751953"/>
<use xlink:href="#c_53989f37671240acb447bc6046631699" x="393.945312"/>
<use xlink:href="#c_f15a64fcd463ef4629c48bab42cde24c" x="443.945313"/>
<use xlink:href="#c_01d93a582460e35a7945ca50d148ffeb" x="507.421875"/>
<use xlink:href="#c_6ec8d5749226675394676a5d2a3b468b" x="568.701172"/>
<use xlink:href="#c_01d93a582460e35a7945ca50d148ffeb" x="609.814453"/>
<use xlink:href="#c_5099edb83619131346ae654950954dea" x="671.093750"/>
<use xlink:href="#c_5099edb83619131346ae654950954dea" x="698.876953"/>
<use xlink:href="#c_0bce5afba2dc6b9024b26277c38ad8e8" x="726.660156"/>
<use xlink:href="#c_5099edb83619131346ae654950954dea" x="788.183594"/>
<use xlink:href="#c_53989f37671240acb447bc6046631699" x="815.966797"/>
<use xlink:href="#c_680e57528fc97ec49605e10827a40086" x="865.966797"/>
<use xlink:href="#c_f15a64fcd463ef4629c48bab42cde24c" x="944.677734"/>
<use xlink:href="#c_0bce5afba2dc6b9024b26277c38ad8e8" x="1008.154297"/>
<use xlink:href="#c_fe791a90f5471e2ab20a5ed41a7fa451" x="1069.677734"/>
<use xlink:href="#c_72234ddc5dcad8d05c893ef0371171da" x="1133.056641"/>
<use xlink:href="#c_518d586bee075aa0153eaebfcb5ab11f" x="1219.335938"/>
</g>
</g>
<g id="line2d59">
<path style="fill: none; stroke: #ff0000; stroke-width: 1.000000; stroke-linejoin: round; stroke-linecap: square;  opacity: 1.000000"  d="M295.133750 104.935625L315.293750 104.935625"/>
</g>
<g id="line2d60">
</g>
<g id="text23">
<defs>
<path id="c_07e3f33241aff50afcba519606f2a979" d="M9.812500 -72.906250l9.859375 0.000000l0.000000 64.609375l35.500000 0.000000l0.000000 8.296875l-45.359375 0.000000z"/>
</defs>
<g style="fill: #000000; opacity: 1.000000" transform="translate(331.133750,109.975625)scale(0.144000)">
<use xlink:href="#c_42baa63129a918535c52adb20d687ea7"/>
<use xlink:href="#c_ff9441f72805bc441fcb0bfe0d774f13" x="63.623047"/>
<use xlink:href="#c_53989f37671240acb447bc6046631699" x="140.625000"/>
<use xlink:href="#c_3b86f9879deccc43ffac57ae939fe3b7" x="190.625000"/>
<use xlink:href="#c_518d586bee075aa0153eaebfcb5ab11f" x="268.115234"/>
<use xlink:href="#c_f0b2f1db24a99c7a6a1fa56820ca5a8a" x="328.417969"/>
<use xlink:href="#c_53989f37671240acb447bc6046631699" x="401.611328"/>
<use xlink:href="#c_f15a64fcd463ef4629c48bab42cde24c" x="451.611328"/>
<use xlink:href="#c_01d93a582460e35a7945ca50d148ffeb" x="515.087891"/>
<use xlink:href="#c_6ec8d5749226675394676a5d2a3b468b" x="576.367188"/>
<use xlink:href="#c_01d93a582460e35a7945ca50d148ffeb" x="617.480469"/>
<use xlink:href="#c_5099edb83619131346ae654950954dea" x="678.759766"/>
<use xlink:href="#c_5099edb83619131346ae654950954dea" x="706.542969"/>
<use xlink:href="#c_0bce5afba2dc6b9024b26277c38ad8e8" x="734.326172"/>
<use xlink:href="#c_5099edb83619131346ae654950954dea" x="795.849609"/>
<use xlink:href="#c_53989f37671240acb447bc6046631699" x="823.632813"/>
<use xlink:href="#c_680e57528fc97ec49605e10827a40086" x="873.632813"/>
<use xlink:href="#c_f15a64fcd463ef4629c48bab42cde24c" x="952.343750"/>
<use xlink:href="#c_0bce5afba2dc6b9024b26277c38ad8e8" x="1015.820313"/>
<use xlink:href="#c_fe791a90f5471e2ab20a5ed41a7fa451" x="1077.343750"/>
<use xlink:href="#c_a469f8ee191679fe73f3b765bd271597" x="1140.722656"/>
<use xlink:href="#c_07e3f33241aff50afcba519606f2a979" x="1210.546875"/>
</g>
</g>
<g id="line2d61">
<path style="fill: none; stroke: #00bfbf; stroke-width: 1.000000; stroke-linejoin: round; stroke-linecap: square;  opacity: 1.000000"  d="M295.133750 126.073125L315.293750 126.073125"/>
</g>
<g id="line2d62">
</g>
<g id="text24">
<g style="fill: #000000; opacity: 1.000000" transform="translate(331.133750,131.113125)scale(0.144000)">
<use xlink:href="#c_ed3f3ed3ebfbd18bcb9c012009a68ad1"/>
<use xlink:href="#c_ff9441f72805bc441fcb0bfe0d774f13" x="63.623047"/>
<use xlink:href="#c_53989f37671240acb447bc6046631699" x="140.625000"/>
<use xlink:href="#c_a469f8ee191679fe73f3b765bd271597" x="190.625000"/>
<use xlink:href="#c_518d586bee075aa0153eaebfcb5ab11f" x="260.449219"/>
<use xlink:href="#c_f0b2f1db24a99c7a6a1fa56820ca5a8a" x="320.751953"/>
<use xlink:href="#c_53989f37671240acb447bc6046631699" x="393.945312"/>
<use xlink:href="#c_8e0810ad13fe20a2a87a2619799b154d" x="443.945313"/>
<use xlink:href="#c_0bce5afba2dc6b9024b26277c38ad8e8" x="496.044922"/>
<use xlink:href="#c_6ec8d5749226675394676a5d2a3b468b" x="557.568359"/>
<use xlink:href="#c_6a63bda47b2f3da1cec6aadd80692cfe" x="598.681641"/>
<use xlink:href="#c_01d93a582460e35a7945ca50d148ffeb" x="626.464844"/>
<use xlink:href="#c_5099edb83619131346ae654950954dea" x="687.744141"/>
</g>
</g>
<g id="line2d63">
<path style="fill: none; stroke: #bf00bf; stroke-width: 1.000000; stroke-linejoin: round; stroke-linecap: square;  opacity: 1.000000"  d="M295.133750 147.210625L315.293750 147.210625"/>
</g>
<g id="line2d64">
</g>
<g id="text25">
<g style="fill: #000000; opacity: 1.000000" transform="translate(331.133750,152.250625)scale(0.144000)">
<use xlink:href="#c_ed3f3ed3ebfbd18bcb9c012009a68ad1"/>
<use xlink:href="#c_ff9441f72805bc441fcb0bfe0d774f13" x="63.623047"/>
<use xlink:href="#c_53989f37671240acb447bc6046631699" x="140.625000"/>
<use xlink:href="#c_a469f8ee191679fe73f3b765bd271597" x="190.625000"/>
<use xlink:href="#c_518d586bee075aa0153eaebfcb5ab11f" x="260.449219"/>
<use xlink:href="#c_f0b2f1db24a99c7a6a1fa56820ca5a8a" x="320.751953"/>
<use xlink:href="#c_53989f37671240acb447bc6046631699" x="393.945312"/>
<use xlink:href="#c_f15a64fcd463ef4629c48bab42cde24c" x="443.945313"/>
<use xlink:href="#c_01d93a582460e35a7945ca50d148ffeb" x="507.421875"/>
<use xlink:href="#c_6ec8d5749226675394676a5d2a3b468b" x="568.701172"/>
<use xlink:href="#c_01d93a582460e35a7945ca50d148ffeb" x="609.814453"/>
<use xlink:href="#c_5099edb83619131346ae654950954dea" x="671.093750"/>
<use xlink:href="#c_5099edb83619131346ae654950954dea" x="698.876953"/>
<use xlink:href="#c_0bce5afba2dc6b9024b26277c38ad8e8" x="726.660156"/>
<use xlink:href="#c_5099edb83619131346ae654950954dea" x="788.183594"/>
<use xlink:href="#c_53989f37671240acb447bc6046631699" x="815.966797"/>
<use xlink:href="#c_680e57528fc97ec49605e10827a40086" x="865.966797"/>
<use xlink:href="#c_f15a64fcd463ef4629c48bab42cde24c" x="944.677734"/>
<use xlink:href="#c_0bce5afba2dc6b9024b26277c38ad8e8" x="1008.154297"/>
<use xlink:href="#c_fe791a90f5471e2ab20a5ed41a7fa451" x="1069.677734"/>
<use xlink:href="#c_72234ddc5dcad8d05c893ef0371171da" x="1133.056641"/>
<use xlink:href="#c_518d586bee075aa0153eaebfcb5ab11f" x="1219.335938"/>
</g>
</g>
<g id="line2d65">
<path style="fill: none; stroke: #bfbf00; stroke-width: 1.000000; stroke-linejoin: round; stroke-linecap: square;  opacity: 1.000000"  d="M295.133750 168.348125L315.293750 168.348125"/>
</g>
<g id="line2d66">
</g>
<g id="text26">
<g style="fill: #000000; opacity: 1.000000" transform="translate(331.133750,173.388125)scale(0.144000)">
<use xlink:href="#c_ed3f3ed3ebfbd18bcb9c012009a68ad1"/>
<use xlink:href="#c_ff9441f72805bc441fcb0bfe0d774f13" x="63.623047"/>
<use xlink:href="#c_53989f37671240acb447bc6046631699" x="140.625000"/>
<use xlink:href="#c_3b86f9879deccc43ffac57ae939fe3b7" x="190.625000"/>
<use xlink:href="#c_518d586bee075aa0153eaebfcb5ab11f" x="268.115234"/>
<use xlink:href="#c_f0b2f1db24a99c7a6a1fa56820ca5a8a" x="328.417969"/>
<use xlink:href="#c_53989f37671240acb447bc6046631699" x="401.611328"/>
<use xlink:href="#c_f15a64fcd463ef4629c48bab42cde24c" x="451.611328"/>
<use xlink:href="#c_01d93a582460e35a7945ca50d148ffeb" x="515.087891"/>
<use xlink:href="#c_6ec8d5749226675394676a5d2a3b468b" x="576.367188"/>
<use xlink:href="#c_01d93a582460e35a7945ca50d148ffeb" x="617.480469"/>
<use xlink:href="#c_5099edb83619131346ae654950954dea" x="678.759766"/>
<use xlink:href="#c_5099edb83619131346ae654950954dea" x="706.542969"/>
<use xlink:href="#c_0bce5afba2dc6b9024b26277c38ad8e8" x="734.326172"/>
<use xlink:href="#c_5099edb83619131346ae654950954dea" x="795.849609"/>
<use xlink:href="#c_53989f37671240acb447bc6046631699" x="823.632813"/>
<use xlink:href="#c_680e57528fc97ec49605e10827a40086" x="873.632813"/>
<use xlink:href="#c_f15a64fcd463ef4629c48bab42cde24c" x="952.343750"/>
<use xlink:href="#c_0bce5afba2dc6b9024b26277c38ad8e8" x="1015.820313"/>
<use xlink:href="#c_fe791a90f5471e2ab20a5ed41a7fa451" x="1077.343750"/>
<use xlink:href="#c_a469f8ee191679fe73f3b765bd271597" x="1140.722656"/>
<use xlink:href="#c_07e3f33241aff50afcba519606f2a979" x="1210.546875"/>
</g>
</g>
</g>
</g>
</g>
</svg>
